<?xml version="1.0" encoding="UTF-8"?><svg xmlns="http://www.w3.org/2000/svg" xmlns:xlink="http://www.w3.org/1999/xlink" fill-opacity="1" color-rendering="auto" color-interpolation="auto" text-rendering="auto" stroke="black" stroke-linecap="square" width="535" stroke-miterlimit="10" shape-rendering="auto" stroke-opacity="1" fill="black" stroke-dasharray="none" font-weight="normal" stroke-width="1" height="253" font-family="'Dialog'" font-style="normal" stroke-linejoin="miter" font-size="12px" stroke-dashoffset="0" image-rendering="auto">
  <!--Generated by ySVG 2.5-->
  <defs id="genericDefs"/>
  <g>
    <defs id="defs1">
      <clipPath clipPathUnits="userSpaceOnUse" id="clipPath1">
        <path d="M0 0 L535 0 L535 253 L0 253 L0 0 Z"/>
      </clipPath>
      <clipPath clipPathUnits="userSpaceOnUse" id="clipPath2">
        <path d="M756 118 L1291 118 L1291 371 L756 371 L756 118 Z"/>
      </clipPath>
    </defs>
    <g fill="white" text-rendering="geometricPrecision" shape-rendering="geometricPrecision" transform="translate(-756,-118)" stroke="white">
      <rect x="756" width="535" height="253" y="118" clip-path="url(#clipPath2)" stroke="none"/>
    </g>
    <g fill="rgb(236,177,32)" text-rendering="geometricPrecision" shape-rendering="geometricPrecision" transform="matrix(1,0,0,1,-756,-118)" stroke="rgb(236,177,32)">
      <path d="M939.5 164.5 L1018.5 133 L1097.5 164.5 L1018.5 196 Z" fill-rule="evenodd" clip-path="url(#clipPath2)" stroke="none"/>
    </g>
    <g text-rendering="geometricPrecision" stroke-miterlimit="1.45" shape-rendering="geometricPrecision" font-family="sans-serif" transform="matrix(1,0,0,1,-756,-118)" stroke-linecap="butt">
      <text x="1003.002" xml:space="preserve" y="161.9688" clip-path="url(#clipPath2)" stroke="none">Array</text>
      <text x="985.5908" xml:space="preserve" y="176.1016" clip-path="url(#clipPath2)" stroke="none">is allocated</text>
      <path fill="none" d="M939.5 164.5 L1018.5 133 L1097.5 164.5 L1018.5 196 Z" clip-path="url(#clipPath2)" fill-rule="evenodd"/>
    </g>
    <g fill="rgb(0,114,189)" text-rendering="geometricPrecision" shape-rendering="geometricPrecision" transform="matrix(1,0,0,1,-756,-118)" stroke="rgb(0,114,189)">
      <rect x="771.4" width="124" height="30" y="324" clip-path="url(#clipPath2)" stroke="none"/>
    </g>
    <g stroke-linecap="butt" transform="matrix(1,0,0,1,-756,-118)" fill="white" text-rendering="geometricPrecision" font-family="sans-serif" shape-rendering="geometricPrecision" stroke="white" stroke-miterlimit="1.45">
      <text x="782.9391" xml:space="preserve" y="343.5352" clip-path="url(#clipPath2)" stroke="none">use alloc. pattern</text>
      <rect x="771.4" y="324" clip-path="url(#clipPath2)" fill="none" width="124" height="30" stroke="black"/>
    </g>
    <g fill="rgb(236,177,32)" text-rendering="geometricPrecision" shape-rendering="geometricPrecision" transform="matrix(1,0,0,1,-756,-118)" stroke="rgb(236,177,32)">
      <path d="M1078.5 216 L1158 184.5 L1237.5 216 L1158 247.5 Z" fill-rule="evenodd" clip-path="url(#clipPath2)" stroke="none"/>
    </g>
    <g text-rendering="geometricPrecision" stroke-miterlimit="1.45" shape-rendering="geometricPrecision" font-family="sans-serif" transform="matrix(1,0,0,1,-756,-118)" stroke-linecap="butt">
      <text x="1121.5693" xml:space="preserve" y="213.4688" clip-path="url(#clipPath2)" stroke="none">restore from</text>
      <text x="1130.8506" xml:space="preserve" y="227.6016" clip-path="url(#clipPath2)" stroke="none">metadata</text>
      <path fill="none" d="M1078.5 216 L1158 184.5 L1237.5 216 L1158 247.5 Z" clip-path="url(#clipPath2)" fill-rule="evenodd"/>
    </g>
    <g fill="rgb(236,177,32)" text-rendering="geometricPrecision" shape-rendering="geometricPrecision" transform="matrix(1,0,0,1,-756,-118)" stroke="rgb(236,177,32)">
      <path d="M939 262.5 L1018.5 231 L1098 262.5 L1018.5 294 Z" fill-rule="evenodd" clip-path="url(#clipPath2)" stroke="none"/>
    </g>
    <g text-rendering="geometricPrecision" stroke-miterlimit="1.45" shape-rendering="geometricPrecision" font-family="sans-serif" transform="matrix(1,0,0,1,-756,-118)" stroke-linecap="butt">
      <text x="964.8955" xml:space="preserve" y="267.0352" clip-path="url(#clipPath2)" stroke="none">contains metadata</text>
      <path fill="none" d="M939 262.5 L1018.5 231 L1098 262.5 L1018.5 294 Z" clip-path="url(#clipPath2)" fill-rule="evenodd"/>
    </g>
    <g fill="rgb(0,114,189)" text-rendering="geometricPrecision" shape-rendering="geometricPrecision" transform="matrix(1,0,0,1,-756,-118)" stroke="rgb(0,114,189)">
      <rect x="956.5" width="124" height="30" y="324" clip-path="url(#clipPath2)" stroke="none"/>
    </g>
    <g stroke-linecap="butt" transform="matrix(1,0,0,1,-756,-118)" fill="white" text-rendering="geometricPrecision" font-family="sans-serif" shape-rendering="geometricPrecision" stroke="white" stroke-miterlimit="1.45">
      <text x="977.7305" xml:space="preserve" y="336.4688" clip-path="url(#clipPath2)" stroke="none">create pattern</text>
      <text x="975.5039" xml:space="preserve" y="350.6016" clip-path="url(#clipPath2)" stroke="none">from metadata</text>
      <rect x="956.5" y="324" clip-path="url(#clipPath2)" fill="none" width="124" height="30" stroke="black"/>
    </g>
    <g fill="rgb(0,114,189)" text-rendering="geometricPrecision" shape-rendering="geometricPrecision" transform="matrix(1,0,0,1,-756,-118)" stroke="rgb(0,114,189)">
      <rect x="1141.6" width="124" height="30" y="324" clip-path="url(#clipPath2)" stroke="none"/>
    </g>
    <g stroke-linecap="butt" transform="matrix(1,0,0,1,-756,-118)" fill="white" text-rendering="geometricPrecision" font-family="sans-serif" shape-rendering="geometricPrecision" stroke="white" stroke-miterlimit="1.45">
      <text x="1163.2289" xml:space="preserve" y="336.4688" clip-path="url(#clipPath2)" stroke="none">auto generate</text>
      <text x="1182.5004" xml:space="preserve" y="350.6016" clip-path="url(#clipPath2)" stroke="none">pattern</text>
      <rect x="1141.6" y="324" clip-path="url(#clipPath2)" fill="none" width="124" height="30" stroke="black"/>
      <path fill="none" d="M939.4619 164.5 L833.4 164.5 L833.4 316" clip-path="url(#clipPath2)" stroke="black"/>
      <path fill="black" d="M833.4 324 L838.4 312 L833.4 315 L828.4 312 Z" clip-path="url(#clipPath2)" stroke="none"/>
      <text fill="black" x="912.1166" xml:space="preserve" y="159.0352" clip-path="url(#clipPath2)" stroke="none">Yes</text>
      <path fill="none" d="M1097.4796 164.5 L1158 164.5 L1158 176.4915" clip-path="url(#clipPath2)" stroke="black"/>
      <path fill="black" d="M1158 184.4915 L1163 172.4915 L1158 175.4915 L1153 172.4915 Z" clip-path="url(#clipPath2)" stroke="none"/>
      <text fill="black" x="1111.3773" xml:space="preserve" y="159.7968" clip-path="url(#clipPath2)" stroke="none">No</text>
      <path fill="none" d="M1078.4755 216 L1018.5 216 L1018.5 223.0308" clip-path="url(#clipPath2)" stroke="black"/>
      <path fill="black" d="M1018.5 231.0308 L1023.5 219.0308 L1018.5 222.0308 L1013.5 219.0308 Z" clip-path="url(#clipPath2)" stroke="none"/>
      <text fill="black" x="1029.7905" xml:space="preserve" y="208.9352" clip-path="url(#clipPath2)" stroke="none">Yes</text>
      <path fill="none" d="M938.9641 262.5 L922.4 262.5 L922.4 310.3114 L1018.5 310.3114 L1018.5 316" clip-path="url(#clipPath2)" stroke="black"/>
      <path fill="black" d="M1018.5 324 L1023.5 312 L1018.5 315 L1013.5 312 Z" clip-path="url(#clipPath2)" stroke="none"/>
      <text fill="black" x="916.4103" xml:space="preserve" y="255.4672" clip-path="url(#clipPath2)" stroke="none">Yes</text>
      <path fill="none" d="M1237.5164 216 L1275.2 216 L1274.5988 261.9997 L1216.4987 261.9997 L1216.4987 316.0075" clip-path="url(#clipPath2)" stroke="black"/>
      <path fill="black" d="M1216.4987 324.0075 L1221.4987 312.0075 L1216.4987 315.0075 L1211.4987 312.0075 Z" clip-path="url(#clipPath2)" stroke="none"/>
      <text fill="black" x="1247.7764" xml:space="preserve" y="210.4531" clip-path="url(#clipPath2)" stroke="none">No</text>
      <path fill="none" d="M1098.036 262.5 L1192.4347 262.5 L1192.4347 316.0291" clip-path="url(#clipPath2)" stroke="black"/>
      <path fill="black" d="M1192.4347 324.0291 L1197.4347 312.0291 L1192.4347 315.0291 L1187.4347 312.0291 Z" clip-path="url(#clipPath2)" stroke="none"/>
      <text fill="black" x="1102.6538" xml:space="preserve" y="256.0752" clip-path="url(#clipPath2)" stroke="none">No</text>
    </g>
  </g>
</svg>
